<?xml version="1.0" standalone="no"?>
<!DOCTYPE svg PUBLIC "-//W3C//DTD SVG 20010904//EN"
 "http://www.w3.org/TR/2001/REC-SVG-20010904/DTD/svg10.dtd">
<svg version="1.0" xmlns="http://www.w3.org/2000/svg"
 width="260.000000pt" height="260.000000pt" viewBox="0 0 260.000000 260.000000"
 preserveAspectRatio="xMidYMid meet">
<metadata>
Created by potrace 1.14, written by Peter Selinger 2001-2017
</metadata>
<g transform="translate(0.000000,260.000000) scale(0.100000,-0.100000)"
fill="#000000" stroke="none">
<path d="M1289 2568 c-7 -13 -110 -187 -229 -388 -187 -314 -370 -623 -635
-1070 -202 -340 -230 -396 -210 -404 8 -3 15 -1 15 5 0 6 4 8 9 5 8 -5 136
143 396 458 77 94 153 184 168 200 46 50 49 55 -363 -639 -133 -225 -240 -415
-240 -429 0 -3 6 -6 13 -6 20 0 111 99 274 295 554 669 815 980 822 980 4 0
79 -83 166 -185 87 -102 188 -219 224 -260 35 -41 85 -100 111 -130 487 -571
662 -770 676 -770 11 0 -60 122 -356 610 -328 542 -351 582 -348 585 2 2 32
-31 68 -73 36 -42 109 -128 164 -192 54 -63 108 -126 120 -140 318 -374 382
-440 336 -349 -20 37 -184 311 -455 759 -65 107 -189 312 -275 455 -86 143
-217 360 -291 482 -74 122 -137 222 -141 223 -4 0 -13 -10 -19 -22z"/>
</g>
</svg>
