<?xml version="1.0" standalone="no"?>
<!DOCTYPE svg PUBLIC "-//W3C//DTD SVG 20010904//EN"
 "http://www.w3.org/TR/2001/REC-SVG-20010904/DTD/svg10.dtd">
<svg version="1.0" xmlns="http://www.w3.org/2000/svg"
 width="260.000000pt" height="260.000000pt" viewBox="0 0 260.000000 260.000000"
 preserveAspectRatio="xMidYMid meet">
<metadata>
Created by potrace 1.14, written by Peter Selinger 2001-2017
</metadata>
<g transform="translate(0.000000,260.000000) scale(0.100000,-0.100000)"
fill="#000000" stroke="none">
<path d="M1289 2562 c-8 -15 -45 -79 -82 -142 -38 -63 -74 -124 -80 -135 -7
-11 -24 -39 -39 -63 -16 -24 -28 -45 -28 -47 0 -3 -82 -141 -110 -185 -17 -27
-115 -194 -123 -210 -4 -8 -15 -27 -25 -42 -16 -26 -175 -291 -216 -361 -53
-91 -311 -525 -325 -547 -40 -63 -84 -150 -79 -156 13 -13 58 24 113 92 33 41
69 85 80 97 11 13 38 45 60 71 22 27 47 56 55 66 8 9 26 32 40 50 14 18 30 38
35 44 6 6 42 49 80 96 138 169 168 205 176 208 5 2 6 9 3 14 -4 7 -2 8 4 4 15
-9 9 -21 -153 -291 -109 -182 -201 -336 -260 -437 -5 -10 -32 -55 -59 -100
-28 -46 -57 -96 -66 -113 -27 -52 -74 -130 -80 -135 -15 -11 -37 -69 -31 -78
7 -11 73 53 148 143 23 28 66 79 95 115 30 36 91 110 136 165 45 55 87 106 93
113 28 34 115 139 129 156 8 10 20 23 25 30 6 6 62 74 125 151 63 77 120 145
126 150 6 6 28 33 50 60 21 28 44 55 50 60 6 6 30 35 54 65 24 30 52 63 62 73
10 10 18 22 18 27 0 35 71 -30 158 -144 12 -15 41 -49 64 -75 24 -26 61 -69
83 -95 22 -27 49 -58 60 -70 11 -12 40 -47 65 -76 25 -30 77 -91 115 -135 72
-84 163 -191 285 -336 25 -30 63 -74 85 -99 55 -61 54 -61 104 -120 25 -29 50
-58 55 -64 6 -6 31 -36 56 -65 25 -30 55 -65 68 -78 l24 -24 -7 23 c-4 13 -13
30 -20 38 -6 8 -38 60 -70 115 -32 55 -61 102 -64 105 -4 3 -12 16 -18 30 -7
14 -136 228 -287 475 -151 248 -272 452 -269 455 5 6 57 -52 188 -209 17 -20
35 -41 40 -47 6 -6 30 -35 55 -64 190 -226 396 -467 428 -500 l25 -25 -8 25
c-4 14 -37 72 -73 130 -88 142 -121 197 -197 325 -14 22 -29 47 -35 55 -6 8
-37 60 -70 115 -33 55 -64 105 -70 112 -5 7 -10 15 -10 18 0 3 -12 24 -27 48
-74 116 -243 401 -243 408 0 5 -4 9 -8 9 -5 0 -16 15 -25 33 -27 50 -55 98
-174 292 -60 99 -116 191 -124 205 -8 14 -17 27 -20 30 -3 3 -31 49 -63 103
-31 53 -58 97 -60 97 -2 0 -10 -12 -17 -28z"/>
</g>
</svg>
